<?xml version="1.0" encoding="utf-8"?>
<!-- Generator: Adobe Illustrator 16.0.0, SVG Export Plug-In . SVG Version: 6.00 Build 0)  -->
<!DOCTYPE svg PUBLIC "-//W3C//DTD SVG 1.1//EN" "http://www.w3.org/Graphics/SVG/1.1/DTD/svg11.dtd">
<svg version="1.1" id="Layer_1" focusable="false" xmlns="http://www.w3.org/2000/svg" xmlns:xlink="http://www.w3.org/1999/xlink"
	 x="0px" y="0px" width="512px" height="512px" viewBox="0 0 512 512" enable-background="new 0 0 512 512" xml:space="preserve">
<path fill="#DBDBDB" d="M88.5,490.5v-67.001h67V490.5H88.5 M222.5,490.5v-67.001h67.001V490.5H222.5 M356.5,490.5v-67.001h67.001
	V490.5H356.5 M88.5,356.5v-66.999h67V356.5H88.5 M222.5,356.5v-66.999h67.001V356.5H222.5 M356.5,356.5v-66.999h67.001V356.5H356.5
	 M88.5,222.5v-67h67v67H88.5 M222.5,222.5v-67h67.001v67H222.5 M356.5,222.5v-67h67.001v67H356.5 M88.5,88.5v-67h67v67H88.5
	 M222.5,88.5v-67h67.001v67H222.5 M356.5,88.5v-67h67.001v67H356.5z"/>
</svg>
