<?xml version="1.0" encoding="utf-8"?>
<!-- Generator: Adobe Illustrator 16.0.0, SVG Export Plug-In . SVG Version: 6.00 Build 0)  -->
<!DOCTYPE svg PUBLIC "-//W3C//DTD SVG 1.1//EN" "http://www.w3.org/Graphics/SVG/1.1/DTD/svg11.dtd">
<svg version="1.1" id="Layer_1" xmlns="http://www.w3.org/2000/svg" xmlns:xlink="http://www.w3.org/1999/xlink" x="0px" y="0px"
	 width="38px" height="38px" viewBox="0 0 38 38" enable-background="new 0 0 38 38" xml:space="preserve">
<g transform="translate(-50.559 6.895)">
	<path fill="#92929D" d="M74.959,22.105h-8.83c-1.59,0.003-2.906-1.236-3-2.823L62.4,6.805h-0.841c-0.553,0-1-0.448-1-1
		c0-0.553,0.447-1,1-1h4.664l0.671-2.017c0.136-0.408,0.519-0.684,0.949-0.684h5.399c0.432,0,0.814,0.275,0.95,0.684l0.666,2.017
		h4.679c0.553-0.001,1,0.447,1.001,0.999c0.001,0.553-0.447,1-0.999,1.001c-0.001,0-0.001,0-0.002,0h-0.856l-0.733,12.477
		C77.854,20.865,76.545,22.102,74.959,22.105z M64.405,6.805l0.727,12.358c0.031,0.529,0.47,0.942,1,0.941h8.828
		c0.529,0.001,0.969-0.412,1-0.941l0.724-12.358H64.405z M68.559,4.105l-0.232,0.7h4.433l-0.236-0.7H68.559z M72.789,17.605h-0.063
		c-0.552-0.034-0.97-0.509-0.937-1.061l0.451-7.199c0.032-0.528,0.471-0.939,1-0.938h0.063c0.551,0.035,0.969,0.509,0.936,1.06
		l-0.451,7.201c-0.032,0.525-0.467,0.936-0.994,0.938H72.789z M68.289,17.605c-0.529,0.001-0.968-0.41-1-0.938l-0.451-7.201
		c-0.034-0.551,0.384-1.025,0.936-1.061c0.002,0,0.004,0,0.008-0.001h0.063c0.529-0.001,0.967,0.41,1,0.938l0.449,7.199
		c0.036,0.552-0.383,1.027-0.934,1.063c0,0,0,0-0.001,0H68.289z"/>
</g>
</svg>
