<svg xmlns="http://www.w3.org/2000/svg" width="24" height="24" viewBox="0 0 24 24"><defs><style>.a{fill:none;}.b{fill:#92929d;}</style></defs><path class="a" d="M0,0H24V24H0Z"/><path class="b" d="M3.6,20A3.654,3.654,0,0,1,0,16.306V5.5A3.654,3.654,0,0,1,3.6,1.8h.088A2.744,2.744,0,0,1,6.242,0H9.758a2.741,2.741,0,0,1,2.549,1.8H12.4A3.654,3.654,0,0,1,16,5.5V16.306A3.654,3.654,0,0,1,12.4,20ZM1.934,5.5V16.306A1.693,1.693,0,0,0,3.6,18.018H12.4a1.693,1.693,0,0,0,1.67-1.712V5.5A1.693,1.693,0,0,0,12.4,3.784h-.089a2.742,2.742,0,0,1-2.549,1.8H6.242a2.743,2.743,0,0,1-2.549-1.8H3.6A1.693,1.693,0,0,0,1.934,5.5Zm3.516-2.7a.8.8,0,0,0,.791.811H9.758a.811.811,0,0,0,0-1.622H6.242A.8.8,0,0,0,5.45,2.793ZM4.483,16.4a.991.991,0,0,1,0-1.982h7.034a.991.991,0,0,1,0,1.982Zm0-3.6a.991.991,0,0,1,0-1.982h7.034a.991.991,0,0,1,0,1.982Zm0-3.6a.991.991,0,0,1,0-1.982h7.034a.991.991,0,0,1,0,1.982Z" transform="translate(4 2)"/></svg>