<svg xmlns="http://www.w3.org/2000/svg" width="24" height="24" viewBox="0 0 24 24"><defs><style>.a{fill:none;}.b{fill:#92929d;}</style></defs><path class="a" d="M0,0H24V24H0Z"/><path class="b" d="M17.792,20H12.6a2.21,2.21,0,0,1-2.208-2.208V12.6A2.21,2.21,0,0,1,12.6,10.39h5.195A2.21,2.21,0,0,1,20,12.6v5.195A2.21,2.21,0,0,1,17.792,20ZM12.6,12.208a.39.39,0,0,0-.39.39v5.195a.39.39,0,0,0,.39.39h5.195a.39.39,0,0,0,.39-.39V12.6a.39.39,0,0,0-.39-.39ZM7.4,20H2.208A2.21,2.21,0,0,1,0,17.792V12.6A2.21,2.21,0,0,1,2.208,10.39H7.4A2.21,2.21,0,0,1,9.61,12.6v5.195A2.21,2.21,0,0,1,7.4,20ZM2.208,12.208a.39.39,0,0,0-.39.39v5.195a.39.39,0,0,0,.39.39H7.4a.39.39,0,0,0,.39-.39V12.6a.39.39,0,0,0-.39-.39Zm15.584-2.6H12.6A2.21,2.21,0,0,1,10.39,7.4V2.208A2.21,2.21,0,0,1,12.6,0h5.195A2.21,2.21,0,0,1,20,2.208V7.4A2.21,2.21,0,0,1,17.792,9.61ZM12.6,1.818a.39.39,0,0,0-.39.39V7.4a.39.39,0,0,0,.39.39h5.195a.39.39,0,0,0,.39-.39V2.208a.39.39,0,0,0-.39-.39ZM7.4,9.61H2.208A2.21,2.21,0,0,1,0,7.4V2.208A2.21,2.21,0,0,1,2.208,0H7.4A2.21,2.21,0,0,1,9.61,2.208V7.4A2.21,2.21,0,0,1,7.4,9.61ZM2.208,1.818a.39.39,0,0,0-.39.39V7.4a.39.39,0,0,0,.39.39H7.4a.39.39,0,0,0,.39-.39V2.208a.39.39,0,0,0-.39-.39Z" transform="translate(2 2)"/></svg>