<svg xmlns="http://www.w3.org/2000/svg" width="24" height="24" viewBox="0 0 24 24"><defs><style>.a{fill:#92929d;}</style></defs><path class="a" d="M19,22H17a3,3,0,0,1-3-3V18a3,3,0,0,1,3-3h1a3,3,0,1,1,3-3,3,3,0,0,1-3,3h1a3,3,0,0,1,3,3v1A3,3,0,0,1,19,22Zm-2-5a1,1,0,0,0-1,1v1a1,1,0,0,0,1,1h2a1,1,0,0,0,1-1V18a1,1,0,0,0-1-1Zm1-6a1,1,0,1,0,1,1A1,1,0,0,0,18,11ZM5,22H3a3,3,0,0,1-3-3V18a3,3,0,0,1,3-3H4a3,3,0,1,1,3-3,3,3,0,0,1-3,3H5a3,3,0,0,1,3,3v1A3,3,0,0,1,5,22ZM3,17a1,1,0,0,0-1,1v1a1,1,0,0,0,1,1H5a1,1,0,0,0,1-1V18a1,1,0,0,0-1-1Zm1-6a1,1,0,1,0,1,1A1,1,0,0,0,4,11Zm8,2H10a3,3,0,0,1-3-3V9a3,3,0,0,1,3-3h1a3,3,0,1,1,3-3,3,3,0,0,1-3,3h1a3,3,0,0,1,3,3v1A3,3,0,0,1,12,13ZM10,8A1,1,0,0,0,9,9v1a1,1,0,0,0,1,1h2a1,1,0,0,0,1-1V9a1,1,0,0,0-1-1Zm1-6a1,1,0,1,0,1,1A1,1,0,0,0,11,2Z" transform="translate(1 1)"/></svg>