<svg xmlns="http://www.w3.org/2000/svg" width="24" height="24" viewBox="0 0 24 24"><defs><style>.a{fill:#92929d;}</style></defs><path class="a" d="M10,20.519A10,10,0,1,1,16.31,2.761l.551-.551L17.123.815a1,1,0,0,1,1.966.369l-.058.3.3-.057A1,1,0,0,1,19.7,3.4l-1.48.277-.5.5A10,10,0,0,1,10,20.519Zm0-18a8,8,0,1,0,8,8,7.917,7.917,0,0,0-1.7-4.925L14.876,7.023a6,6,0,1,1-1.42-1.408l1.43-1.43A7.925,7.925,0,0,0,10,2.519Zm0,4a4,4,0,1,0,3.434,1.946L11.925,9.974a2.026,2.026,0,0,1,.075.545A2,2,0,1,1,10.49,8.58l1.52-1.519A4,4,0,0,0,10,6.52Z" transform="translate(2 1.481)"/></svg>