<?xml version="1.0" encoding="utf-8"?>
<!-- Generator: Adobe Illustrator 22.1.0, SVG Export Plug-In . SVG Version: 6.00 Build 0)  -->
<svg version="1.1" id="Layer_1" xmlns="http://www.w3.org/2000/svg" xmlns:xlink="http://www.w3.org/1999/xlink" x="0px" y="0px"
	 viewBox="0 0 24 24" style="enable-background:new 0 0 24 24;" xml:space="preserve">
<style type="text/css">
	.st0{fill:none;}
	.st1{fill:#92929D;}
</style>
<rect class="st0" width="24" height="24"/>
<g transform="translate(-535 -1599)">
	<path class="st1" d="M539.3,1619.6c-0.3,0-0.5-0.1-0.7-0.3c-0.4-0.4-0.4-1,0-1.4l15.2-15.2c0.4-0.4,1-0.4,1.4,0s0.4,1,0,1.4
		l-15.2,15.2C539.9,1619.5,539.6,1619.6,539.3,1619.6z"/>
	<path class="st1" d="M541.6,1610.2c-2.5,0-4.6-2.1-4.6-4.6s2.1-4.6,4.6-4.6s4.6,2.1,4.6,4.6S544.1,1610.2,541.6,1610.2z
		 M541.6,1603c-1.4,0-2.6,1.2-2.6,2.6s1.2,2.6,2.6,2.6s2.6-1.2,2.6-2.6S543,1603,541.6,1603z"/>
	<path class="st1" d="M552.4,1621c-2.5,0-4.6-2.1-4.6-4.6c0-2.5,2.1-4.6,4.6-4.6c2.5,0,4.6,2.1,4.6,4.6
		C557,1618.9,554.9,1621,552.4,1621z M552.4,1613.8c-1.4,0-2.6,1.2-2.6,2.6s1.2,2.6,2.6,2.6s2.6-1.2,2.6-2.6
		S553.8,1613.8,552.4,1613.8z"/>
</g>
</svg>
