<svg xmlns="http://www.w3.org/2000/svg" width="24" height="24" viewBox="0 0 24 24"><defs><style>.a{fill:#92929d;}</style></defs><path class="a" d="M17.2,20H2.8A1.9,1.9,0,0,1,.9,18.1V7.582A2.622,2.622,0,0,1,.112,4.846L1.156,1.417A1.989,1.989,0,0,1,3.07,0H16.93a1.989,1.989,0,0,1,1.913,1.418l1.043,3.428A2.613,2.613,0,0,1,19.1,7.582V18.1A1.9,1.9,0,0,1,17.2,20ZM8,11h4.5a1,1,0,0,1,1,1v6h3.6V8.3h-.388a2.993,2.993,0,0,1-1.918-.689,2.994,2.994,0,0,1-1.918.689h-.958A2.993,2.993,0,0,1,10,7.61,2.994,2.994,0,0,1,8.082,8.3H7.123A2.993,2.993,0,0,1,5.206,7.61,2.994,2.994,0,0,1,3.288,8.3H2.9V18H7V12A1,1,0,0,1,8,11Zm1,2v5h2.5V13Zm5.794-8.5a.958.958,0,0,1,1,1,.866.866,0,0,0,.918.8h.479a.924.924,0,0,0,.239-.031.778.778,0,0,0,.49-.365.607.607,0,0,0,.053-.475L16.93,2H3.07L2.026,5.428A.614.614,0,0,0,2,5.6a.76.76,0,0,0,.808.7h.48a.866.866,0,0,0,.918-.8.958.958,0,0,1,1-1,.958.958,0,0,1,1,1,.866.866,0,0,0,.918.8h.958A.866.866,0,0,0,9,5.5a1,1,0,0,1,2,0,.866.866,0,0,0,.918.8h.958a.866.866,0,0,0,.918-.8A.958.958,0,0,1,14.794,4.5Z" transform="translate(2 2)"/></svg>