<?xml version="1.0" encoding="utf-8"?>
<!-- Generator: Adobe Illustrator 22.1.0, SVG Export Plug-In . SVG Version: 6.00 Build 0)  -->
<svg version="1.1" id="Layer_1" xmlns="http://www.w3.org/2000/svg" xmlns:xlink="http://www.w3.org/1999/xlink" x="0px" y="0px"
	 viewBox="0 0 24 24" style="enable-background:new 0 0 24 24;" xml:space="preserve">
<style type="text/css">
	.st0{fill:none;}
	.st1{fill:#92929D;}
</style>
<rect class="st0" width="24" height="24"/>
<path class="st1" d="M17,22.2C17,22.2,17,22.2,17,22.2l-10.2,0c-0.9-0.1-1.7-0.9-1.6-1.9L5.8,11l-1.7,0.5c-0.8,0.3-1.8-0.2-2.1-1
	L0.7,7.8C0.3,6.9,0.6,5.9,1.5,5.4l5.3-2.7c0.6-0.3,1.4-0.3,1.9,0.2c0.9,0.8,2.1,1.3,3.3,1.4c1.2-0.1,2.4-0.6,3.3-1.4
	c0.6-0.5,1.3-0.6,2-0.2l5.3,2.7c0.8,0.4,1.2,1.5,0.8,2.3L22,10.6c-0.4,0.8-1.3,1.2-2.1,1L18.2,11l0.6,9.4c0,0.5-0.2,0.9-0.5,1.3
	C17.9,22,17.5,22.2,17,22.2z M6.5,8.8C6.8,8.8,7,8.9,7.2,9c0.3,0.2,0.6,0.5,0.7,0.8c0,0.2,0.1,0.3,0.1,0.5l-0.7,10h9.6l-0.7-10
	c0-0.4,0.1-0.7,0.3-1C16.7,9,17,8.8,17.4,8.8c0.2,0,0.3,0,0.5,0.1l2.4,0.7l1.2-2.5l-4.9-2.6c-1.2,1-2.8,1.7-4.4,1.8l-0.1,0
	c-1.7-0.1-3.2-0.7-4.5-1.8L2.6,7.1l1.2,2.5l2.4-0.7C6.3,8.8,6.4,8.8,6.5,8.8z M17,20.2C17,20.2,17,20.2,17,20.2L17,20.2L17,20.2z
	 M17.3,10.8C17.3,10.8,17.3,10.8,17.3,10.8L17.3,10.8z M6.7,10.8L6.7,10.8C6.7,10.8,6.7,10.8,6.7,10.8z M18.1,10.1L18.1,10.1
	C18.1,10.1,18.1,10.1,18.1,10.1z M16.4,4.5C16.4,4.5,16.4,4.5,16.4,4.5L16.4,4.5z M7.7,4.5L7.7,4.5C7.7,4.5,7.7,4.5,7.7,4.5z"/>
</svg>
