<svg xmlns="http://www.w3.org/2000/svg" width="38" height="38" viewBox="0 0 38 38"><defs><style>.a{fill:#fff;}.b{fill:#fc5a5a;}</style></defs><path class="a" d="M8,0H30a8,8,0,0,1,8,8V30a8,8,0,0,1-8,8H8a8,8,0,0,1-8-8V8A8,8,0,0,1,8,0Z"/><g transform="translate(7.5 7)"><path class="b" d="M7,22a7.008,7.008,0,0,1-7-7V7A7.008,7.008,0,0,1,7,0h8a7.008,7.008,0,0,1,7,7v8a7.008,7.008,0,0,1-7,7ZM2,7v8a5.005,5.005,0,0,0,5,5h8a5.005,5.005,0,0,0,5-5V7a5.005,5.005,0,0,0-5-5H7A5.006,5.006,0,0,0,2,7Zm10.95,7.364-2.121-2.121L8.708,14.364A1,1,0,1,1,7.293,12.95l2.121-2.121L7.293,8.708A1,1,0,0,1,8.708,7.293l2.121,2.121L12.95,7.293a1,1,0,1,1,1.414,1.415l-2.121,2.121,2.121,2.121a1,1,0,1,1-1.414,1.414Z" transform="translate(1 1)"/></g></svg>