<svg xmlns="http://www.w3.org/2000/svg" width="38" height="38" viewBox="0 0 38 38"><defs><style>.a{fill:#fafafb;}.b{fill:#487f8e;stroke:#487f8e;stroke-linecap:round;stroke-linejoin:round;}</style></defs><g transform="translate(-725 -2495)"><path class="a" d="M8,0H30a8,8,0,0,1,8,8V30a8,8,0,0,1-8,8H8a8,8,0,0,1-8-8V8A8,8,0,0,1,8,0Z" transform="translate(725 2495)"/><path class="b" d="M19.89,21.024H10.914A1.068,1.068,0,0,1,9.806,19.9a1.159,1.159,0,0,1,.277-.769,1.069,1.069,0,0,1,.831-.35H19.89a1.119,1.119,0,0,1,0,2.238ZM2.24,18.517v0l.632-3.381L13.16,4.847,15.91,7.6,5.623,17.884l-3.381.632ZM17.485,6.022h0L14.735,3.272l1.248-1.248,2.75,2.75L17.486,6.021Z" transform="translate(732.26 2502.476)"/></g></svg>
