<svg xmlns="http://www.w3.org/2000/svg" width="38" height="38" viewBox="0 0 38 38"><defs><style>.a{fill:#fff;}.b{fill:#487f8e;stroke:#487f8e;stroke-linecap:round;stroke-linejoin:round;}</style></defs><path class="a" d="M8,0H30a8,8,0,0,1,8,8V30a8,8,0,0,1-8,8H8a8,8,0,0,1-8-8V8A8,8,0,0,1,8,0Z"/><path class="b" d="M17.65,19H8.674a1.068,1.068,0,0,1-1.108-1.119,1.159,1.159,0,0,1,.277-.769,1.069,1.069,0,0,1,.831-.35H17.65a1.119,1.119,0,0,1,0,2.238ZM0,16.493v0L.633,13.11,10.92,2.823l2.75,2.75L3.383,15.86,0,16.492ZM15.245,4h0L12.495,1.248,13.743,0l2.75,2.75L15.246,4Z" transform="translate(9.5 9.5)"/></svg>