<svg xmlns="http://www.w3.org/2000/svg" width="24" height="24" viewBox="0 0 24 24"><defs><style>.a{fill:#92929d;}</style></defs><path class="a" d="M.991,19a1,1,0,0,1-.974-1.178l.889-4.753a.991.991,0,0,1,.274-.52L13.171.558a1.905,1.905,0,0,1,2.695,0l2.576,2.576a1.9,1.9,0,0,1,0,2.695L6.452,17.819a1,1,0,0,1-.521.274l-4.753.889A1.017,1.017,0,0,1,.991,19ZM12,4.546,2.805,13.738,2.24,16.76l3.022-.565L14.454,7Zm2.522-2.522L13.4,3.139,15.861,5.6l1.115-1.115ZM18.01,19H9.99A.954.954,0,0,1,9,18a1.035,1.035,0,0,1,.248-.687A.955.955,0,0,1,9.99,17h8.02A.954.954,0,0,1,19,18a1.035,1.035,0,0,1-.248.687A.956.956,0,0,1,18.01,19Z" transform="translate(2 2)"/></svg>