<?xml version="1.0" encoding="utf-8"?>
<!-- Generator: Adobe Illustrator 16.0.0, SVG Export Plug-In . SVG Version: 6.00 Build 0)  -->
<!DOCTYPE svg PUBLIC "-//W3C//DTD SVG 1.1//EN" "http://www.w3.org/Graphics/SVG/1.1/DTD/svg11.dtd">
<svg version="1.1" id="Layer_1" xmlns="http://www.w3.org/2000/svg" xmlns:xlink="http://www.w3.org/1999/xlink" x="0px" y="0px"
	 width="24px" height="24px" viewBox="0 0 24 24" enable-background="new 0 0 24 24" xml:space="preserve">
<g>
	<path fill-rule="evenodd" clip-rule="evenodd" fill="#FF994A" d="M1.311,20.225c0.046-0.863,0.514-1.565,0.886-2.302
		c2.604-5.13,5.213-10.256,7.818-15.385c0.387-0.762,0.957-1.289,1.826-1.405c1.026-0.138,1.896,0.339,2.405,1.293
		c0.729,1.363,1.449,2.729,2.178,4.094c2.191,4.126,4.383,8.252,6.574,12.38c0.129,0.245,0.221,0.509,0.33,0.765
		c0,0.444,0,0.889,0,1.333c-0.031,0.07-0.063,0.14-0.088,0.211c-0.281,0.766-0.781,1.314-1.566,1.577
		c-0.119,0.041-0.244,0.07-0.367,0.104c-5.059,0-10.12,0-15.18,0c-0.085-0.009-0.169-0.023-0.254-0.023
		c-0.688-0.004-1.375-0.003-2.063-0.006c-1.09-0.006-1.978-0.638-2.321-1.675c-0.088-0.269-0.12-0.556-0.178-0.835
		C1.311,20.31,1.311,20.267,1.311,20.225z M12.355,21.141c0,0.011,0,0.021,0,0.028c2.852,0,5.703-0.001,8.557,0.004
		c0.324,0.001,0.529-0.146,0.656-0.423c0.158-0.345,0.111-0.677-0.064-1.008c-2.912-5.479-5.82-10.96-8.73-16.44
		c-0.137-0.257-0.289-0.495-0.617-0.49c-0.33,0.005-0.477,0.253-0.604,0.509c-2.776,5.46-5.553,10.92-8.328,16.381
		c-0.045,0.089-0.09,0.179-0.121,0.273c-0.206,0.63,0.173,1.165,0.824,1.165C6.736,21.141,9.546,21.141,12.355,21.141z"/>
	<path fill-rule="evenodd" clip-rule="evenodd" fill="#FF994A" d="M11.373,10.808c0-1.002-0.002-2.004,0.002-3.007
		c0.003-0.416,0.266-0.741,0.666-0.84c0.359-0.091,0.752,0.071,0.93,0.408c0.07,0.134,0.117,0.299,0.117,0.449
		c0.008,1.991,0.008,3.981,0.004,5.97c-0.002,0.507-0.375,0.886-0.857,0.887s-0.856-0.379-0.859-0.884
		C11.371,12.799,11.373,11.803,11.373,10.808z"/>
	<ellipse fill-rule="evenodd" clip-rule="evenodd" fill="#FF994A" cx="12.233" cy="17.703" rx="1.245" ry="1.239"/>
</g>
</svg>
