<svg xmlns="http://www.w3.org/2000/svg" width="11.192" height="11.192" viewBox="0 0 11.192 11.192"><defs><style>.a{fill:none;}.b{fill:#e2e2ea;}</style></defs><path class="a" d="M0,0H10.833V10.833H0Z"/><path class="b" d="M1.258,10.544l-.8-.8a1.557,1.557,0,0,1,0-2.2L2.462,5.533a1.557,1.557,0,0,1,2.2,0l.107.107.869-.869-.107-.107a1.557,1.557,0,0,1,0-2.2L7.539.456a1.557,1.557,0,0,1,2.2,0l.8.8a1.557,1.557,0,0,1,0,2.2L8.538,5.467a1.557,1.557,0,0,1-2.2,0l-.1-.1-.869.869.1.1a1.557,1.557,0,0,1,0,2.2L3.461,10.544a1.557,1.557,0,0,1-2.2,0Zm1.8-4.412L1.055,8.137a.713.713,0,0,0,0,1.007l.8.8a.712.712,0,0,0,1.006,0L4.869,7.94a.713.713,0,0,0,0-1.006l-.1-.1-.66.66a.423.423,0,0,1-.6-.6l.66-.66-.107-.107a.712.712,0,0,0-1.007,0ZM6.934,4.869a.712.712,0,0,0,1.006,0L9.946,2.863a.713.713,0,0,0,0-1.006l-.8-.8a.712.712,0,0,0-1.007,0L6.132,3.06a.713.713,0,0,0,0,1.007l.107.107.66-.66a.423.423,0,0,1,.6.6l-.66.66Z" transform="translate(0.192 0.192)"/></svg>