<?xml version="1.0" encoding="utf-8"?>
<!-- Generator: Adobe Illustrator 16.0.0, SVG Export Plug-In . SVG Version: 6.00 Build 0)  -->
<!DOCTYPE svg PUBLIC "-//W3C//DTD SVG 1.1//EN" "http://www.w3.org/Graphics/SVG/1.1/DTD/svg11.dtd">
<svg version="1.1" id="Layer_1" xmlns="http://www.w3.org/2000/svg" xmlns:xlink="http://www.w3.org/1999/xlink" x="0px" y="0px"
	 width="24px" height="24px" viewBox="0 0 24 24" enable-background="new 0 0 24 24" xml:space="preserve">
<path fill-rule="evenodd" clip-rule="evenodd" fill="#FC5A5A" stroke="#FC5A5A" stroke-miterlimit="10" d="M9.942,18.037
	c0.014,0.352-0.351,0.666-0.76,0.517c-0.239-0.087-0.368-0.265-0.383-0.517c-0.066-1.031-0.128-2.063-0.193-3.094
	c-0.096-1.544-0.192-3.088-0.289-4.631C8.289,9.843,8.256,9.375,8.232,8.907c-0.02-0.388,0.2-0.655,0.539-0.671
	C9.109,8.22,9.349,8.471,9.373,8.853c0.134,2.158,0.27,4.315,0.404,6.473C9.832,16.187,9.882,17.047,9.942,18.037z"/>
<path fill-rule="evenodd" clip-rule="evenodd" fill="#FC5A5A" stroke="#FC5A5A" stroke-miterlimit="10" d="M13.565,17.832
	c0.121-1.936,0.242-3.872,0.363-5.809c0.066-1.069,0.134-2.139,0.199-3.208c0.023-0.39,0.252-0.637,0.592-0.626
	c0.345,0.011,0.573,0.285,0.548,0.682c-0.091,1.519-0.19,3.038-0.284,4.557c-0.083,1.316-0.162,2.632-0.243,3.949
	c-0.012,0.19-0.025,0.38-0.036,0.57c-0.021,0.368-0.268,0.614-0.601,0.598c-0.324-0.015-0.548-0.278-0.542-0.634
	c0-0.026,0-0.051,0-0.077C13.562,17.832,13.563,17.832,13.565,17.832z"/>
<path fill="#FC5A5A" d="M21.495,4.515c-0.084-0.083-0.192-0.126-0.323-0.126h-4.333l-0.981-2.341
	c-0.14-0.346-0.392-0.641-0.756-0.883C14.737,0.921,14.367,0.8,13.994,0.8H9.506c-0.374,0-0.743,0.122-1.107,0.365
	C8.034,1.407,7.781,1.702,7.641,2.048L6.66,4.389H2.327c-0.131,0-0.238,0.042-0.323,0.126C1.92,4.6,1.878,4.707,1.878,4.838v0.897
	c0,0.131,0.042,0.238,0.126,0.322c0.084,0.084,0.192,0.126,0.323,0.126h1.346v13.349c0,0.776,0.22,1.438,0.659,1.984
	c0.439,0.547,0.843,1.017,1.459,1.017l11.792-0.042c0.617,0,1.145-0.438,1.584-1.002c0.439-0.566,0.659-1.237,0.659-2.013V6.184
	h1.346c0.131,0,0.238-0.042,0.323-0.126c0.084-0.084,0.126-0.191,0.126-0.322V4.838C21.621,4.707,21.579,4.6,21.495,4.515z
	 M9.296,2.749c0.065-0.084,0.145-0.136,0.238-0.154h4.445c0.093,0.019,0.173,0.07,0.238,0.154l0.673,1.641H8.609L9.296,2.749z
	 M18.032,19.477c0,0.207-0.033,0.395-0.098,0.568c-0.066,0.173-0.133,0.299-0.204,0.379s-0.119,0.119-0.147,0.119H5.917
	c-0.028,0-0.077-0.04-0.147-0.119s-0.138-0.206-0.204-0.379c-0.065-0.173-0.098-0.362-0.098-0.568V6.184h12.564V19.477
	L18.032,19.477z"/>
</svg>
