<svg xmlns="http://www.w3.org/2000/svg" width="14" height="14" viewBox="0 0 14 14"><defs><style>.a{fill:#fafafb;}</style></defs><path class="a" d="M13.563-9.937A1.447,1.447,0,0,1,14-8.875V-.5A1.447,1.447,0,0,1,13.563.563,1.447,1.447,0,0,1,12.5,1H1.5A1.447,1.447,0,0,1,.438.563,1.447,1.447,0,0,1,0-.5v-11a1.447,1.447,0,0,1,.438-1.062A1.447,1.447,0,0,1,1.5-13H9.875a1.447,1.447,0,0,1,1.063.438ZM8.5-11.5h-4V-9h4Zm3.813,11A.166.166,0,0,0,12.5-.687V-8.812a.18.18,0,0,0-.062-.125L10-11.375V-8.25a.723.723,0,0,1-.219.531A.723.723,0,0,1,9.25-7.5H3.75a.723.723,0,0,1-.531-.219A.723.723,0,0,1,3-8.25V-11.5H1.688a.166.166,0,0,0-.187.188V-.687A.166.166,0,0,0,1.688-.5ZM5.063-5.937A2.645,2.645,0,0,1,7-6.75a2.645,2.645,0,0,1,1.938.813A2.645,2.645,0,0,1,9.75-4a2.645,2.645,0,0,1-.812,1.938A2.645,2.645,0,0,1,7-1.25a2.645,2.645,0,0,1-1.937-.812A2.645,2.645,0,0,1,4.25-4,2.645,2.645,0,0,1,5.063-5.937ZM6.094-3.094A1.293,1.293,0,0,0,7-2.75a1.209,1.209,0,0,0,.891-.359A1.209,1.209,0,0,0,8.25-4a1.209,1.209,0,0,0-.359-.891A1.209,1.209,0,0,0,7-5.25a1.209,1.209,0,0,0-.891.359A1.209,1.209,0,0,0,5.75-4,1.293,1.293,0,0,0,6.094-3.094Z" transform="translate(0 13)"/></svg>