<svg xmlns="http://www.w3.org/2000/svg" width="24" height="24" viewBox="0 0 24 24"><defs><style>.a{fill:#fff;}.b{fill:none;}</style></defs><g transform="translate(5 7.001)"><path class="a" d="M5.4,4.131,9.272.264a.9.9,0,0,1,1.274,1.274l-4.5,4.5a.9.9,0,0,1-1.274,0l-4.5-4.5A.9.9,0,0,1,1.538.264Z" transform="translate(0 10.81) rotate(-90)"/><path class="a" d="M5.4,4.131,9.272.264a.9.9,0,0,1,1.274,1.274l-4.5,4.5a.9.9,0,0,1-1.274,0l-4.5-4.5A.9.9,0,0,1,1.538.264Z" transform="translate(7.451 10.81) rotate(-90)"/></g><rect class="b" width="24" height="24"/></svg>