<svg xmlns="http://www.w3.org/2000/svg" xmlns:xlink="http://www.w3.org/1999/xlink" width="105.623" height="28.911" viewBox="0 0 105.623 28.911">
  <defs>
    <linearGradient id="linear-gradient" y1="0.5" x2="1.001" y2="0.5" gradientUnits="objectBoundingBox">
      <stop offset="0" stop-color="#00c3a6"/>
      <stop offset="0.32" stop-color="#00baa0"/>
      <stop offset="0.84" stop-color="#00a091"/>
      <stop offset="1" stop-color="#00978b"/>
    </linearGradient>
  </defs>
  <g id="Artwork_3" data-name="Artwork 3" transform="translate(52.811 14.456)">
    <g id="Group_16" data-name="Group 16" transform="translate(-52.811 -14.456)">
      <path id="Path_1" data-name="Path 1" d="M25.249,27.948,0,13.877,25.249,0ZM7.361,13.877l13.8,7.673V6.2Z" fill="url(#linear-gradient)"/>
      <g id="Group_15" data-name="Group 15" transform="translate(35.378 1.735)">
        <path id="Path_2" data-name="Path 2" d="M33.861,4.206H28.079V20.782H24.224V4.206H18.442a9.059,9.059,0,0,1,0-2.506H33.861A7.132,7.132,0,0,1,33.861,4.206Z" transform="translate(-18.355 -0.158)" fill="#004c61"/>
        <path id="Path_3" data-name="Path 3" d="M33.717,4.2a6.746,6.746,0,0,1-.771,3.084H29.669V18.463H26.2V5.356A25.635,25.635,0,0,1,33.717,4.2Z" transform="translate(-11.079 2.161)" fill="#004c61"/>
        <path id="Path_4" data-name="Path 4" d="M30.4,3.02a2.12,2.12,0,1,1,2.12,2.12A2.12,2.12,0,0,1,30.4,3.02Zm3.855,4.433v14.07H30.785V7.453Z" transform="translate(-7.184 -0.9)" fill="#004c61"/>
        <path id="Path_5" data-name="Path 5" d="M45.35,8.248V18.463H41.688V9.6c0-1.735-.385-2.891-2.12-2.891l-2.506.385V18.463H33.4V5.356A22.165,22.165,0,0,1,40.339,4.2C44.579,4.2,45.35,5.935,45.35,8.248Z" transform="translate(-4.402 2.161)" fill="#004c61"/>
        <path id="Path_6" data-name="Path 6" d="M40.4,3.02a2.12,2.12,0,1,1,2.12,2.12A2.12,2.12,0,0,1,40.4,3.02Zm3.855,4.433v14.07H40.785V7.453Z" transform="translate(2.09 -0.9)" fill="#004c61"/>
        <path id="Path_7" data-name="Path 7" d="M52.771,19.847a8.1,8.1,0,0,1-3.469.578c-2.313,0-4.24-1.156-4.24-4.819V8.475h-2.12a9.252,9.252,0,0,1,0-2.506h2.12V2.5h3.662V5.969h5.011a9.059,9.059,0,0,1,0,2.506H48.723v6.361c0,2.313.385,3.084,1.542,3.084a5.011,5.011,0,0,0,2.313-.578A7.71,7.71,0,0,1,52.771,19.847Z" transform="translate(4.368 0.584)" fill="#004c61"/>
        <path id="Path_8" data-name="Path 8" d="M48.571,21.747a7.324,7.324,0,0,0,4.048-3.469A44.716,44.716,0,0,1,47.8,4.4h4.048a32.188,32.188,0,0,0,2.7,10.215h.193A32.959,32.959,0,0,0,57.244,4.4h4.048a44.524,44.524,0,0,1-4.433,13.492c-2.313,4.24-4.24,6.168-7.517,6.939a12.335,12.335,0,0,1-.771-3.084Z" transform="translate(8.953 2.346)" fill="#004c61"/>
      </g>
    </g>
  </g>
</svg>
